<svg xmlns="http://www.w3.org/2000/svg" version="1.1" xmlns:xlink="http://www.w3.org/1999/xlink" width="1000" height="1000"><style>
    #light-icon {
      display: inline;
    }
    #dark-icon {
      display: none;
    }

    @media (prefers-color-scheme: dark) {
      #light-icon {
        display: none;
      }
      #dark-icon {
        display: inline;
      }
    }
  </style><g id="light-icon"><svg xmlns="http://www.w3.org/2000/svg" version="1.1" xmlns:xlink="http://www.w3.org/1999/xlink" width="1000" height="1000"><g clip-path="url(#SvgjsClipPath1036)"><rect width="1000" height="1000" fill="#ffffff"></rect><g transform="matrix(1.953125,0,0,1.953125,0,0)"><svg xmlns="http://www.w3.org/2000/svg" version="1.1" xmlns:xlink="http://www.w3.org/1999/xlink" width="512" height="512"><svg width="512" height="512" viewBox="0 0 512 512" version="1.1" id="svg1" inkscape:version="1.4.2 (f4327f4, 2025-05-13)" sodipodi:docname="logo-reversed.svg" xml:space="preserve" xmlns:inkscape="http://www.inkscape.org/namespaces/inkscape" xmlns:sodipodi="http://sodipodi.sourceforge.net/DTD/sodipodi-0.dtd" xmlns="http://www.w3.org/2000/svg" xmlns:svg="http://www.w3.org/2000/svg"><sodipodi:namedview id="namedview1" pagecolor="#ffffff" bordercolor="#000000" borderopacity="0.25" inkscape:showpageshadow="2" inkscape:pageopacity="0.0" inkscape:pagecheckerboard="0" inkscape:deskcolor="#d1d1d1" inkscape:document-units="px" inkscape:zoom="0.60776955" inkscape:cx="-62.523698" inkscape:cy="259.14428" inkscape:window-width="1920" inkscape:window-height="1009" inkscape:window-x="1912" inkscape:window-y="-8" inkscape:window-maximized="1" inkscape:current-layer="layer4"></sodipodi:namedview><defs id="defs1"><inkscape:path-effect effect="fillet_chamfer" id="path-effect5" is_visible="true" lpeversion="1" nodesatellites_param="F,0,0,1,0,0,0,1 @ F,0,1,1,0,1.7672671,0,1 @ F,0,0,1,0,1.7672671,0,1 @ F,0,0,1,0,0,0,1" radius="0" unit="px" method="auto" mode="F" chamfer_steps="1" flexible="false" use_knot_distance="true" apply_no_radius="true" apply_with_radius="true" only_selected="false" hide_knots="false"></inkscape:path-effect><inkscape:path-effect effect="fillet_chamfer" id="path-effect27" is_visible="true" lpeversion="1" nodesatellites_param="F,0,1,1,0,1.85335,0,1 @ F,0,1,1,0,1.85335,0,1 @ F,0,1,1,0,1.85335,0,1 @ F,0,0,1,0,1.85335,0,1 @ F,0,1,1,0,1.85335,0,1 @ F,0,1,1,0,1.85335,0,1" radius="0" unit="px" method="auto" mode="F" chamfer_steps="1" flexible="false" use_knot_distance="true" apply_no_radius="true" apply_with_radius="true" only_selected="false" hide_knots="false"></inkscape:path-effect><inkscape:path-effect effect="fillet_chamfer" id="path-effect6" is_visible="true" lpeversion="1" nodesatellites_param="F,0,0,1,0,1.1791748,0,1 @ F,0,0,1,0,1.1791748,0,1 @ F,0,0,1,0,1.1791748,0,1 @ F,0,0,1,0,0,0,1 @ F,0,0,1,0,0,0,1 @ F,0,0,1,0,0,0,1 @ F,0,0,1,0,0,0,1 @ F,0,0,1,0,0,0,1 @ F,0,0,1,0,0,0,1 @ F,0,0,1,0,0,0,1 @ F,0,0,1,0,0,0,1 @ F,0,1,1,0,2.1598895,0,1 @ F,0,0,1,0,2.1598895,0,1 @ F,0,0,1,0,0,0,1 @ F,0,0,1,0,0,0,1 @ F,0,0,1,0,0,0,1 @ F,0,0,1,0,0,0,1 @ F,0,0,1,0,0,0,1 @ F,0,0,1,0,0,0,1 @ F,0,0,1,0,0,0,1 @ F,0,0,1,0,0,0,1" radius="0" unit="px" method="auto" mode="F" chamfer_steps="1" flexible="false" use_knot_distance="true" apply_no_radius="true" apply_with_radius="true" only_selected="false" hide_knots="false"></inkscape:path-effect><inkscape:path-effect effect="fillet_chamfer" id="path-effect4" is_visible="true" lpeversion="1" nodesatellites_param="F,0,0,1,0,0,0,1 @ F,0,0,1,0,0,0,1 @ F,0,0,1,0,0,0,1 @ F,0,0,1,0,0,0,1" radius="0" unit="px" method="auto" mode="F" chamfer_steps="1" flexible="false" use_knot_distance="true" apply_no_radius="true" apply_with_radius="true" only_selected="false" hide_knots="false"></inkscape:path-effect><inkscape:path-effect effect="fillet_chamfer" id="path-effect3" is_visible="true" lpeversion="1" nodesatellites_param="F,0,0,1,0,0,0,1 @ F,0,0,1,0,3.179836,0,1 @ F,0,1,1,0,3.179836,0,1 @ F,0,0,1,0,0,0,1" radius="0" unit="px" method="auto" mode="F" chamfer_steps="1" flexible="false" use_knot_distance="true" apply_no_radius="true" apply_with_radius="true" only_selected="false" hide_knots="false"></inkscape:path-effect><linearGradient id="dropGradient" x1="71.815508" y1="9.3878546" x2="71.815508" y2="378.72478" gradientTransform="matrix(0.29374376,0,0,0.43750142,311.90734,211.54027)" gradientUnits="userSpaceOnUse"><stop offset="0%" stop-color="#6fd3ff" id="stop1"></stop><stop offset="100%" stop-color="#0077cc" id="stop2"></stop></linearGradient><linearGradient id="bodyGradient" x1="76.485293" y1="47.067872" x2="178.46568" y2="149.04826" gradientTransform="scale(0.78446454,1.2747549)" gradientUnits="userSpaceOnUse"><stop offset="0%" stop-color="#48cae4" id="stop1-6"></stop><stop offset="100%" stop-color="#0077b6" id="stop2-0"></stop></linearGradient><linearGradient id="legGradient" x1="0%" y1="0%" x2="100%" y2="0%"><stop offset="0%" stop-color="#0096c7" id="stop3"></stop><stop offset="50%" stop-color="#90e0ef" id="stop4"></stop><stop offset="100%" stop-color="#0077b6" id="stop5"></stop></linearGradient><filter id="glow" x="-0.056470588" y="-0.032" width="1.1129412" height="1.064"><feGaussianBlur stdDeviation="2" result="blur" id="feGaussianBlur5"></feGaussianBlur><feComposite in="SourceGraphic" in2="blur" operator="over" id="feComposite5"></feComposite></filter><clipPath id="SvgjsClipPath1036"><rect width="1000" height="1000" x="0" y="0" rx="350" ry="350"></rect></clipPath></defs><g inkscape:label="Layer 1" inkscape:groupmode="layer" id="layer1" style="display:inline;mix-blend-mode:normal;stroke:#0aaed9;stroke-opacity:1;stroke-width:1;stroke-dasharray:none"><rect style="fill:#0aaed9;stroke:none;stroke-width:1;stroke-opacity:1;stroke-dasharray:none" id="rect2" width="132" height="81.949348" x="118.5" y="183.93884" ry="0"></rect><rect style="display:inline;mix-blend-mode:normal;fill:#0aaed9;stroke:none;stroke-width:1;stroke-opacity:1;stroke-dasharray:none" id="rect2-8" width="130" height="81.949348" x="263.5" y="183.93884" ry="0"></rect><rect style="display:inline;mix-blend-mode:normal;fill:#0aaed9;stroke:none;stroke-width:1;stroke-opacity:1;stroke-dasharray:none" id="rect2-1" width="132" height="84.947495" x="118.5" y="85" ry="0"></rect><rect style="display:inline;mix-blend-mode:normal;fill:#0aaed9;stroke:none;stroke-width:1;stroke-opacity:1;stroke-dasharray:none" id="rect2-2" width="130" height="84.947495" x="263.5" y="85" ry="0"></rect><path id="rect1" style="display:inline;mix-blend-mode:normal;fill:#0aaed9;stroke:none;stroke-width:1;stroke-opacity:1;stroke-dasharray:none" d="m 393.5,277.88078 v 29.7099 C 393.5,380.39146 332.17499,439 256,439 179.825,439 119.78127,380.38112 118.5,307.59068 l 1e-5,-29.7099 z" sodipodi:nodetypes="cssscc" inkscape:label="Bottom"></path></g><g inkscape:groupmode="layer" id="layer2" inkscape:label="Book" style="display:inline" transform="matrix(0.99966012,0,0,1.0270351,0.08581874,-9.4079166)"><path id="rect3-2-6" style="display:inline;mix-blend-mode:normal;fill:#ffffff;stroke:#0aaed9;stroke-width:2.99907;stroke-dasharray:none;stroke-opacity:1;fill-opacity:1" d="m 261.00051,315.40021 h 51.5 v 82.44904 h -51.5 z" sodipodi:nodetypes="ccccc" inkscape:label="br-sheet"></path><path id="rect3-2" style="display:inline;mix-blend-mode:normal;fill:#ffffff;stroke:#0aaed9;stroke-width:3;stroke-dasharray:none;stroke-opacity:1;fill-opacity:1" d="m 254,326.25 c 15.52774,-8.58899 30.36594,-14.2612 49.49932,-14 v 82.5 c -18.15002,0.0666 -33.97158,7.04994 -49.49932,14 z" sodipodi:nodetypes="ccccc" inkscape:original-d="m 254,326.25 c 15.52774,-8.58899 30.36594,-14.2612 49.49932,-14 v 82.5 c -18.15002,0.0666 -33.97158,7.04994 -49.49932,14 z" inkscape:path-effect="#path-effect4" transform="matrix(1,0,0,0.9993823,-0.49949001,-9.3990547)" inkscape:label="fr-sheet"></path><path id="rect3-2-1" style="display:inline;mix-blend-mode:normal;fill:#ffffff;stroke:#0aaed9;stroke-width:2.99907;stroke-dasharray:none;stroke-opacity:1;fill-opacity:1" d="m 195.50051,315.37513 h 51.5 v 82.44904 h -51.5 z" sodipodi:nodetypes="ccccc" inkscape:label="bl-sheet"></path><path id="rect3" style="display:inline;mix-blend-mode:normal;fill:#ffffff;stroke:#0aaed9;stroke-width:2.99907;stroke-linecap:butt;stroke-linejoin:round;stroke-dasharray:none;stroke-opacity:1;paint-order:normal;fill-opacity:1" d="m 204.00119,302.63301 c 22.41123,0.0666 34.95493,6.06283 49.49932,13.99135 v 82.44904 c -15.85553,-8.58368 -28.39923,-14.25239 -49.49932,-13.99135 z" sodipodi:nodetypes="ccccc" inkscape:label="fl-sheet"></path></g><g inkscape:groupmode="layer" id="layer3" inkscape:label="Block 1" style="display:inline"><path id="rect5" style="display:inline;fill:#ffffff;stroke:#ffffff;stroke-width:1.99938;stroke-linejoin:round;stroke-dasharray:none;stroke-opacity:1;paint-order:normal" d="m 180.80291,136.77486 27.25671,-38.18018 -5.88444,24.52322 14.08063,-2.08604 -26.60995,36.59851 3.94944,-23.65658 z" sodipodi:nodetypes="ccccccc"></path><path id="rect5-9" style="display:inline;fill:#ffffff;stroke:#ffffff;stroke-width:1.99938;stroke-linejoin:round;stroke-dasharray:none;stroke-opacity:1" d="m 180.35674,107.77741 6.30643,-10.57538 -1.84405,8.51188 6.07961,-0.008 -6.73885,10.09773 2.30729,-8.10973 z m 25.86303,42.96906 6.30643,-10.57538 -1.84405,8.51188 6.07961,-0.008 -6.73885,10.09773 2.30729,-8.10973 z" sodipodi:nodetypes="cccccccccccccc" inkscape:label="rect5-9"></path><path id="rect6" style="display:inline;fill:#ffffff;stroke:#ffffff;stroke-width:0;stroke-linejoin:round;stroke-opacity:1" d="m 164.56921,109.50432 v 1.47962 c 9.55841,-9.30279 12.0643,1.00016 0,3.99753 v 4.63721 c 9.81392,-10.36058 12.83208,1.95404 0,4.49722 v 4.84275 c 9.82312,-10.83848 12.91178,1.33814 0,3.47479 v 4.53444 c 9.48785,-12.1104 12.77825,3.80637 0,5.408 v 14.86571 c 0,1.26364 -1.03167,2.29217 -2.37482,2.29217 l -0.19583,0.004 c -1.34315,0 -2.09332,-1.03266 -2.09332,-2.2963 v -14.86558 c -14.50294,-1.38149 -10.04901,-17.09994 0,-5.408 v -4.53444 c -14.48567,-2.06931 -10.22691,-12.30686 0,-3.47479 v -4.84275 c -14.89934,-2.74325 -10.19508,-13.19127 0,-4.49722 v -4.63721 c -14.3217,-3.44557 -10.0801,-13.25527 0,-3.99753 v -1.47975 c 0,-0.77528 0.43117,-3.49281 2.33199,-3.49274 1.90081,7e-5 2.33198,2.71759 2.33198,3.49287 z" sodipodi:nodetypes="cccccccccccccccccccccscc"></path></g><g inkscape:groupmode="layer" id="layer4" inkscape:label="Block 2" style="display:inline"><g inkscape:label="Rendered Gears" transform="matrix(1.0878189,0,0,1.0860331,317.6583,138.21453)" id="g18-1" style="display:inline;fill:#ffffff;fill-opacity:1"><path style="display:inline;fill:#0aaed9;fill-opacity:1;stroke:#ffffff;stroke-width:1.77481;stroke-miterlimit:4;stroke-dasharray:none;stroke-opacity:1" d="m 32.968913,-13.950563 5.884648,0.773471 v 9.4895319 l -5.884648,0.7734711 -0.80257,2.70429101 3.037278,5.21130879 -6.804883,6.7101152 -5.284907,-2.9949789 -2.742484,0.7913923 -0.784395,5.8026966 H 9.9633998 L 9.1790051,9.5080394 6.4365214,8.7166471 1.1516135,11.711626 -5.6532689,5.0015108 -2.6159918,-0.20979799 -3.4185609,-2.914089 -9.3032093,-3.6875601 v -9.4895319 l 5.8846484,-0.773471 0.8025691,-2.704291 -3.0372771,-5.211309 6.8048824,-6.710116 5.2851995,2.99498 2.7421921,-0.791393 0.7843947,-5.802697 h 9.6235522 l 0.784395,5.802697 2.742484,0.791393 5.284907,-2.99498 6.804883,6.710116 -3.037278,5.211309 z" id="path17-9" sodipodi:nodetypes="ccccccccccccccccccccccccccccccccc"></path><ellipse style="display:inline;fill:#0aaed9;fill-opacity:1;stroke:#ffffff;stroke-width:1.83948;stroke-dasharray:none;stroke-opacity:1" id="path18-8-7" cx="14.2336" cy="-8.1977873" rx="11.737972" ry="11.873582"></ellipse></g><path style="fill:#0aaed9;stroke:#0aaed9;stroke-width:4.99845;stroke-linecap:round;stroke-linejoin:round;stroke-dasharray:none;stroke-opacity:1;paint-order:normal" d="m 312.72168,122.60954 9.59843,0.29069 16.72452,15.11545 1.49034,10.31919 -2.36291,8.42977 -18.17884,-12.35396 z" id="path4" sodipodi:nodetypes="ccccccc"></path><path id="rect18" style="display:inline;fill:#ffffff;stroke:none;stroke-width:0.999691;stroke-linejoin:round;stroke-dasharray:none" d="m 303.0035,95.95498 0.40009,-3.40309 1.79977,-0.84456 2.15208,0.43394 0.87504,3.27059 c 12.24397,-0.90465 19.2913,1.42121 28.4925,7.28741 -11.14647,-2.89218 -17.92465,-3.50371 -25.78597,-0.59947 l -1.27205,7.10133 4.35887,46.87015 -1.95321,1.64949 -2.25095,-1.21269 -5.38169,-46.76387 -2.70654,-6.68795 c -8.66534,-0.89066 -14.69855,2.76184 -23.96799,8.85825 5.95801,-9.13749 14.30227,-14.70633 25.24005,-15.95957 z" sodipodi:nodetypes="cccccccccccccccc"></path><g inkscape:label="Rendered Gears" transform="matrix(0.75171247,0,0,0.75372944,320.32159,142.57012)" id="g18" style="display:inline;stroke:#ffffff;stroke-width:1.26263;stroke-dasharray:none;stroke-opacity:1;fill:#0aaed9"><path style="fill:#0aaed9;fill-opacity:1;stroke:#ffffff;stroke-width:2.52527;stroke-miterlimit:4;stroke-dasharray:none;stroke-opacity:1" d="m 18.7249,-5.75955 6.05645,0.807295 v 9.90451 L 18.7249,5.75955 17.8989,8.5821 21.02485,14.0213 14.0213,21.02485 8.5821,17.8989 5.75955,18.7249 4.952255,24.78135 h -9.90451 l -0.807295,-6.05645 -2.82255,-0.826 -5.4392,3.12595 -7.00355,-7.00355 3.12595,-5.4392 -0.826,-2.82255 -6.05645,-0.807295 v -9.90451 l 6.05645,-0.807295 0.826,-2.82255 -3.12595,-5.4392 7.00355,-7.00355 5.4395,3.12595 2.82225,-0.826 0.807295,-6.05645 h 9.90451 l 0.807295,6.05645 2.82255,0.826 5.4392,-3.12595 7.00355,7.00355 -3.12595,5.4392 z" id="path17" sodipodi:nodetypes="ccccccccccccccccccccccccccccccccc"></path><circle style="fill:#0aaed9;fill-opacity:1;stroke:#ffffff;stroke-width:2.52527;stroke-dasharray:none;stroke-opacity:1" id="path18" cx="0" cy="0" r="10"></circle></g></g><g inkscape:groupmode="layer" id="layer6" inkscape:label="Block 3" style="display:inline"><g style="clip-rule:evenodd;display:inline;fill:#0aaed9;fill-rule:evenodd" id="g20" transform="matrix(0.75453371,0,0,0.9993823,195.40535,208.33355)"><path d="m 30.363606,37.04988 h -56.695717 -2.43606 v -2.186082 h 3.399772 V -10.818811 H 3.3296157 V 6.6641279 H 30.363606 V 34.863798 H 32.9217 V 37.04988 Z M -5.7471325,28.484635 H -17.697326 v 6.379163 l 11.9501935,2.6e-4 z m 28.2104025,0 H 9.8814565 v 6.379423 H 22.46327 Z m -36.444115,-8.708303 h -7.148623 v 5.036892 h 7.148623 z m 12.1770755,0 H -8.952391 v 5.036892 h 7.1486215 z m 15.5579255,0 H 6.6055363 v 5.036892 h 7.1486197 z m 11.985034,0 h -7.148621 v 5.036892 h 7.148621 z m -39.720035,-8.74147 h -7.148623 v 5.036893 h 7.148623 z m 12.1770755,0 H -8.952391 v 5.036893 h 7.1486215 z m 15.5579255,0 H 6.6055363 v 5.036893 h 7.1486197 z m 11.985034,0 h -7.148621 v 5.036893 H 25.73919 Z M -13.980845,2.2933933 h -7.148623 V 7.330285 h 7.148623 z m 12.1770755,0 H -8.952391 V 7.330285 h 7.1486215 z M -13.980845,-6.8116529 h -7.148623 v 5.4004686 h 7.148623 z m 12.1770755,0 H -8.952391 v 5.4004686 h 7.1486215 z" id="path1" style="display:inline;fill:#ffffff;stroke-width:2.24789" sodipodi:nodetypes="ccccccccccccccccccccccccccccccccccccccccccccccccccccccccccccccccccccccccccccccccccc"></path></g><g stroke="#1ea0bd" stroke-width="4" stroke-linecap="round" stroke-linejoin="round" id="g3" style="display:inline;fill:none;stroke:#0aaed9;stroke-opacity:1" transform="matrix(0.67876121,0,0,0.78080633,129.00218,177.90463)"><path d="M 34.962464,85.041709 50,39.723021 65.037536,85.041709" id="path1-24" style="stroke:#ffffff;stroke-width:4.11962;stroke-dasharray:none;stroke-opacity:1;fill:none" sodipodi:nodetypes="ccc"></path><path d="M 50,50 V 87.440128" id="path2-8" style="stroke:#ffffff;stroke-width:4.11962;stroke-dasharray:none;stroke-opacity:1;fill:none" sodipodi:nodetypes="cc"></path><rect x="42.164597" y="34.765675" width="15.939903" height="15.656029" rx="1.0903029" id="rect2-6" style="fill:#ffffff;fill-opacity:1;stroke:#ffffff;stroke-width:2.93823;stroke-opacity:1"></rect><path id="line2" style="stroke-width:2.91878;fill:none;stroke:#ffffff;stroke-opacity:1" d="M 45.129315,52.989285 H 55.16956" sodipodi:nodetypes="cc"></path><ellipse cx="50.134548" cy="39.975636" id="circle2" style="fill:#0aaed9;fill-opacity:1;stroke:none;stroke-width:2.93823;stroke-opacity:1" ry="2.919714" rx="3.3421984"></ellipse><path d="m 42.367301,33.601868 v -1.617802 c 0,-0.976035 0.791232,-1.767267 1.767267,-1.767267 h 11.77155 c 0.994711,10e-7 1.819277,0.770804 1.886245,1.763258 l 0.109435,1.621811" id="path3-5" style="fill:#0aaed9;fill-opacity:1;stroke:#ffffff;stroke-width:1.55686;stroke-dasharray:none;stroke-opacity:1" sodipodi:nodetypes="ccccsc"></path><path d="m 42.234503,49.007438 v -4.217024 h 7.54012 v 4.217024" id="path3-5-6" style="fill:#0aaed9;fill-opacity:1;stroke:none;stroke-width:1.69017;stroke-dasharray:none;stroke-opacity:1"></path></g></g><g inkscape:groupmode="layer" id="layer7" inkscape:label="Block 4"><g id="g21" transform="matrix(0.37365046,0,0,0.32116953,329.37558,213.0899)" style="stroke-width:8.65739;stroke-dasharray:none"><path d="m 50,5 c 0,0 31.763643,45 35,80 2.759912,29.84742 -19.766044,45.4708 -34.766044,45.4708 C 35.233956,130.4708 11.819827,114.79725 15,85 18.640902,50.885871 50,5 50,5 Z" fill="none" stroke="#0aaed9" stroke-width="4" stroke-linejoin="round" id="path1-2" sodipodi:nodetypes="csssc" style="stroke-width:8.65739;stroke-dasharray:none;stroke:#ffffff;stroke-opacity:1"></path><path d="m 58.119553,124.29175 c 0,0 -14.168674,-4.55665 -25.786492,-12.21216 C 23.66525,106.36797 24.90658,100.72184 17.012184,88.937138" fill="none" stroke="#0aaed9" stroke-width="3" stroke-linecap="round" opacity="0.25" id="path2" sodipodi:nodetypes="csc" style="stroke-width:14.429;stroke-linecap:round;stroke-linejoin:miter;stroke-dasharray:none;paint-order:normal;stroke:#ffffff;stroke-opacity:1"></path><path d="m 26.619008,89.746662 c 5.404898,12.095438 12.18611,18.054318 20.486597,19.536478" fill="none" stroke="#0aaed9" stroke-width="3" stroke-linecap="round" opacity="0.35" id="path3" sodipodi:nodetypes="cc" style="opacity:1;stroke:#ffffff;stroke-width:8.65739;stroke-dasharray:none;stroke-opacity:1"></path></g><g stroke="#26a69a" stroke-width="2.5" stroke-linecap="round" stroke-linejoin="round" id="g11" style="display:inline;fill:none;stroke:#0aaed9;stroke-opacity:1" transform="matrix(0.94818554,0,0,0.7444675,260.04207,182.09983)"><g id="g28" inkscape:label="Tower" transform="matrix(0.71271822,0,0,1.0075348,19.163094,-0.46512149)" style="display:inline"><path id="line1" d="M 25,90 H 75" style="stroke:#ffffff;stroke-opacity:1"></path><path id="line3" d="M 32,90 40.592457,35" sodipodi:nodetypes="cc" style="stroke:#ffffff;stroke-opacity:1"></path><path id="line4" d="M 68,90 59.407543,35" sodipodi:nodetypes="cc" style="stroke:#ffffff;stroke-opacity:1"></path><path id="line5" d="M 35.385966,70.416822 H 64.518815" sodipodi:nodetypes="cc" style="stroke:#ffffff;stroke-opacity:1"></path><path id="line6" d="M 38.443949,50.416822 H 61.703772" sodipodi:nodetypes="cc" style="stroke:#ffffff;stroke-opacity:1"></path><path id="line7" d="m 35.100308,70.416822 26.603464,-20 M 32.105789,89.18836 64.36013,69.895327 M 67.767716,88.749533 35.448994,70.281294 m 3.000459,-20.01746 20.762149,-16.5951" sodipodi:nodetypes="cccccccc" style="stroke:#ffffff;stroke-opacity:1"></path><path id="line8" d="m 64.804473,70.416822 -26.360524,-20 M 61.593573,50.342062 41.074364,33.458446" sodipodi:nodetypes="cccc" style="stroke:#ffffff;stroke-opacity:1"></path></g><g id="g27" style="display:inline"><path style="display:inline;fill:none;fill-opacity:1;stroke:#ffffff;stroke-width:2.37972;stroke-linecap:round;stroke-linejoin:miter;stroke-miterlimit:4;stroke-dasharray:none;stroke-opacity:1;paint-order:normal" d="M 27.654589,43.00081 V 90.700071" id="path28" sodipodi:nodetypes="cc"></path><path style="display:inline;fill:none;fill-opacity:1;stroke:#ffffff;stroke-width:2.37972;stroke-linecap:round;stroke-linejoin:miter;stroke-miterlimit:4;stroke-dasharray:none;stroke-opacity:1;paint-order:normal" d="M 75.04918,39.994609 V 50.834775" id="path26" sodipodi:nodetypes="cc"></path><rect style="display:inline;fill:#0aaed9;fill-opacity:1;stroke:#ffffff;stroke-width:1.82087;stroke-linecap:round;stroke-linejoin:miter;stroke-miterlimit:4;stroke-dasharray:none;stroke-opacity:1;paint-order:normal" id="rect25" width="10.312321" height="57.249699" x="42.993465" y="-70.204826" transform="matrix(0.23182971,0.97275639,-0.93671677,0.35008813,0,0)" ry="5.1561604" inkscape:label="rect25"></rect><path id="rect26" style="display:inline;fill:#0aaed9;stroke:#ffffff;stroke-width:1.31064;stroke-linecap:round;stroke-opacity:1" d="m 71.284515,13.758032 2.815224,-2.037091 a 2.5612974,2.5612974 0 0 1 3.002982,0 l 2.815224,2.037091 a 3.6287439,3.6287439 62.944714 0 1 1.501491,2.939826 v 14.331101 a 3.6287439,3.6287439 117.05529 0 1 -1.501491,2.939826 l -2.815224,2.037091 a 2.5612974,2.5612974 0 0 1 -3.002982,0 L 71.284515,33.968785 A 3.6287439,3.6287439 62.944714 0 1 69.783024,31.028959 V 16.697858 a 3.6287439,3.6287439 117.05529 0 1 1.501491,-2.939826 z" sodipodi:nodetypes="ccccccc" inkscape:path-effect="#path-effect27" inkscape:original-d="m 69.783024,14.844508 5.818206,-4.210043 5.818206,4.210043 v 18.037801 l -5.818206,4.210043 -5.818206,-4.210043 z" transform="matrix(1.2446841,0,0,1.2068816,-18.986471,-2.175962)"></path><rect style="display:inline;fill:#0aaed9;fill-opacity:1;stroke:#ffffff;stroke-width:1.86384;stroke-linecap:round;stroke-linejoin:miter;stroke-miterlimit:4;stroke-dasharray:none;stroke-opacity:1;paint-order:normal" id="rect27" width="6.8927722" height="13.805182" x="71.494331" y="50.886227" ry="3.1777406"></rect><rect style="display:inline;fill:#0aaed9;fill-opacity:1;stroke:#ffffff;stroke-width:1.89364;stroke-linecap:round;stroke-linejoin:miter;stroke-miterlimit:4;stroke-dasharray:none;stroke-opacity:1;paint-order:normal" id="rect28" width="5.7825418" height="6.8459702" x="72.309334" y="23.531181" ry="3.4229851" rx="2.8912709"></rect></g></g></g></svg></svg></g></g></svg></g><g id="dark-icon"><svg xmlns="http://www.w3.org/2000/svg" version="1.1" xmlns:xlink="http://www.w3.org/1999/xlink" width="1000" height="1000"><g clip-path="url(#SvgjsClipPath1037)"><rect width="1000" height="1000" fill="#0aaed9"></rect><g transform="matrix(1.953125,0,0,1.953125,0,0)"><svg xmlns="http://www.w3.org/2000/svg" version="1.1" xmlns:xlink="http://www.w3.org/1999/xlink" width="512" height="512"><svg width="512" height="512" viewBox="0 0 512 512" version="1.1" id="svg1" inkscape:version="1.4.2 (f4327f4, 2025-05-13)" sodipodi:docname="logo.svg" xml:space="preserve" xmlns:inkscape="http://www.inkscape.org/namespaces/inkscape" xmlns:sodipodi="http://sodipodi.sourceforge.net/DTD/sodipodi-0.dtd" xmlns="http://www.w3.org/2000/svg" xmlns:svg="http://www.w3.org/2000/svg"><sodipodi:namedview id="namedview1" pagecolor="#0aaed9" bordercolor="#000000" borderopacity="0.25" inkscape:showpageshadow="2" inkscape:pageopacity="0.0" inkscape:pagecheckerboard="0" inkscape:deskcolor="#d1d1d1" inkscape:document-units="px" inkscape:zoom="1.2155391" inkscape:cx="175.64223" inkscape:cy="241.45665" inkscape:window-width="1920" inkscape:window-height="1009" inkscape:window-x="1912" inkscape:window-y="-8" inkscape:window-maximized="1" inkscape:current-layer="layer1"></sodipodi:namedview><defs id="defs1"><inkscape:path-effect effect="fillet_chamfer" id="path-effect5" is_visible="true" lpeversion="1" nodesatellites_param="F,0,0,1,0,0,0,1 @ F,0,1,1,0,1.7672671,0,1 @ F,0,0,1,0,1.7672671,0,1 @ F,0,0,1,0,0,0,1" radius="0" unit="px" method="auto" mode="F" chamfer_steps="1" flexible="false" use_knot_distance="true" apply_no_radius="true" apply_with_radius="true" only_selected="false" hide_knots="false"></inkscape:path-effect><inkscape:path-effect effect="fillet_chamfer" id="path-effect27" is_visible="true" lpeversion="1" nodesatellites_param="F,0,1,1,0,1.85335,0,1 @ F,0,1,1,0,1.85335,0,1 @ F,0,1,1,0,1.85335,0,1 @ F,0,0,1,0,1.85335,0,1 @ F,0,1,1,0,1.85335,0,1 @ F,0,1,1,0,1.85335,0,1" radius="0" unit="px" method="auto" mode="F" chamfer_steps="1" flexible="false" use_knot_distance="true" apply_no_radius="true" apply_with_radius="true" only_selected="false" hide_knots="false"></inkscape:path-effect><inkscape:path-effect effect="fillet_chamfer" id="path-effect6" is_visible="true" lpeversion="1" nodesatellites_param="F,0,0,1,0,1.1791748,0,1 @ F,0,0,1,0,1.1791748,0,1 @ F,0,0,1,0,1.1791748,0,1 @ F,0,0,1,0,0,0,1 @ F,0,0,1,0,0,0,1 @ F,0,0,1,0,0,0,1 @ F,0,0,1,0,0,0,1 @ F,0,0,1,0,0,0,1 @ F,0,0,1,0,0,0,1 @ F,0,0,1,0,0,0,1 @ F,0,0,1,0,0,0,1 @ F,0,1,1,0,2.1598895,0,1 @ F,0,0,1,0,2.1598895,0,1 @ F,0,0,1,0,0,0,1 @ F,0,0,1,0,0,0,1 @ F,0,0,1,0,0,0,1 @ F,0,0,1,0,0,0,1 @ F,0,0,1,0,0,0,1 @ F,0,0,1,0,0,0,1 @ F,0,0,1,0,0,0,1 @ F,0,0,1,0,0,0,1" radius="0" unit="px" method="auto" mode="F" chamfer_steps="1" flexible="false" use_knot_distance="true" apply_no_radius="true" apply_with_radius="true" only_selected="false" hide_knots="false"></inkscape:path-effect><inkscape:path-effect effect="fillet_chamfer" id="path-effect4" is_visible="true" lpeversion="1" nodesatellites_param="F,0,0,1,0,0,0,1 @ F,0,0,1,0,0,0,1 @ F,0,0,1,0,0,0,1 @ F,0,0,1,0,0,0,1" radius="0" unit="px" method="auto" mode="F" chamfer_steps="1" flexible="false" use_knot_distance="true" apply_no_radius="true" apply_with_radius="true" only_selected="false" hide_knots="false"></inkscape:path-effect><inkscape:path-effect effect="fillet_chamfer" id="path-effect3" is_visible="true" lpeversion="1" nodesatellites_param="F,0,0,1,0,0,0,1 @ F,0,0,1,0,3.179836,0,1 @ F,0,1,1,0,3.179836,0,1 @ F,0,0,1,0,0,0,1" radius="0" unit="px" method="auto" mode="F" chamfer_steps="1" flexible="false" use_knot_distance="true" apply_no_radius="true" apply_with_radius="true" only_selected="false" hide_knots="false"></inkscape:path-effect><linearGradient id="dropGradient" x1="71.815508" y1="9.3878546" x2="71.815508" y2="378.72478" gradientTransform="matrix(0.29374376,0,0,0.43750142,311.90734,211.54027)" gradientUnits="userSpaceOnUse"><stop offset="0%" stop-color="#6fd3ff" id="stop1"></stop><stop offset="100%" stop-color="#0077cc" id="stop2"></stop></linearGradient><linearGradient id="bodyGradient" x1="76.485293" y1="47.067872" x2="178.46568" y2="149.04826" gradientTransform="scale(0.78446454,1.2747549)" gradientUnits="userSpaceOnUse"><stop offset="0%" stop-color="#48cae4" id="stop1-6"></stop><stop offset="100%" stop-color="#0077b6" id="stop2-0"></stop></linearGradient><linearGradient id="legGradient" x1="0%" y1="0%" x2="100%" y2="0%"><stop offset="0%" stop-color="#0096c7" id="stop3"></stop><stop offset="50%" stop-color="#90e0ef" id="stop4"></stop><stop offset="100%" stop-color="#0077b6" id="stop5"></stop></linearGradient><filter id="glow" x="-0.056470588" y="-0.032" width="1.1129412" height="1.064"><feGaussianBlur stdDeviation="2" result="blur" id="feGaussianBlur5"></feGaussianBlur><feComposite in="SourceGraphic" in2="blur" operator="over" id="feComposite5"></feComposite></filter><clipPath id="SvgjsClipPath1037"><rect width="1000" height="1000" x="0" y="0" rx="350" ry="350"></rect></clipPath></defs><g inkscape:label="Layer 1" inkscape:groupmode="layer" id="layer1" style="display:inline;mix-blend-mode:normal"><rect style="fill:#ffffff;stroke:#000000;stroke-width:0" id="rect2" width="132" height="81.949348" x="118.5" y="183.93884" ry="0"></rect><rect style="display:inline;mix-blend-mode:normal;fill:#ffffff;stroke:#000000;stroke-width:0" id="rect2-8" width="130" height="81.949348" x="263.5" y="183.93884" ry="0"></rect><rect style="display:inline;mix-blend-mode:normal;fill:#ffffff;stroke:#000000;stroke-width:0" id="rect2-1" width="132" height="84.947495" x="118.5" y="85" ry="0"></rect><rect style="display:inline;mix-blend-mode:normal;fill:#ffffff;stroke:#000000;stroke-width:0" id="rect2-2" width="130" height="84.947495" x="263.5" y="85" ry="0"></rect><path id="rect1" style="display:inline;mix-blend-mode:normal;fill:#ffffff;stroke:#000000;stroke-width:0" d="m 393.5,277.88078 v 29.7099 C 393.5,380.39146 332.17499,439 256,439 179.825,439 119.78127,380.38112 118.5,307.59068 l 1e-5,-29.7099 z" sodipodi:nodetypes="cssscc" inkscape:label="Bottom"></path></g><g inkscape:groupmode="layer" id="layer2" inkscape:label="Book" style="display:inline" transform="matrix(0.99966012,0,0,1.0270351,0.08581874,-9.4079166)"><path id="rect3-2-6" style="display:inline;mix-blend-mode:normal;fill:#0aaed9;stroke:#ffffff;stroke-width:2.99907;stroke-dasharray:none;stroke-opacity:1" d="m 261.00051,315.40021 h 51.5 v 82.44904 h -51.5 z" sodipodi:nodetypes="ccccc" inkscape:label="br-sheet"></path><path id="rect3-2" style="display:inline;mix-blend-mode:normal;fill:#0aaed9;stroke:#ffffff;stroke-width:3;stroke-dasharray:none;stroke-opacity:1" d="m 254,326.25 c 15.52774,-8.58899 30.36594,-14.2612 49.49932,-14 v 82.5 c -18.15002,0.0666 -33.97158,7.04994 -49.49932,14 z" sodipodi:nodetypes="ccccc" inkscape:original-d="m 254,326.25 c 15.52774,-8.58899 30.36594,-14.2612 49.49932,-14 v 82.5 c -18.15002,0.0666 -33.97158,7.04994 -49.49932,14 z" inkscape:path-effect="#path-effect4" transform="matrix(1,0,0,0.9993823,-0.49949001,-9.3990547)" inkscape:label="fr-sheet"></path><path id="rect3-2-1" style="display:inline;mix-blend-mode:normal;fill:#0aaed9;stroke:#ffffff;stroke-width:2.99907;stroke-dasharray:none;stroke-opacity:1" d="m 195.50051,315.37513 h 51.5 v 82.44904 h -51.5 z" sodipodi:nodetypes="ccccc" inkscape:label="bl-sheet"></path><path id="rect3" style="display:inline;mix-blend-mode:normal;fill:#0aaed9;stroke:#ffffff;stroke-width:2.99907;stroke-linecap:butt;stroke-linejoin:round;stroke-dasharray:none;stroke-opacity:1;paint-order:normal" d="m 204.00119,302.63301 c 22.41123,0.0666 34.95493,6.06283 49.49932,13.99135 v 82.44904 c -15.85553,-8.58368 -28.39923,-14.25239 -49.49932,-13.99135 z" sodipodi:nodetypes="ccccc" inkscape:label="fl-sheet"></path></g><g inkscape:groupmode="layer" id="layer3" inkscape:label="Block 1" style="display:inline"><path id="rect5" style="display:inline;fill:#0aaed9;stroke:#0aaed9;stroke-width:1.99938;stroke-linejoin:round;stroke-dasharray:none;stroke-opacity:1;paint-order:normal" d="m 180.80291,136.77486 27.25671,-38.18018 -5.88444,24.52322 14.08063,-2.08604 -26.60995,36.59851 3.94944,-23.65658 z" sodipodi:nodetypes="ccccccc"></path><path id="rect5-9" style="display:inline;fill:#0aaed9;stroke:#0aaed9;stroke-width:1.99938;stroke-linejoin:round;stroke-dasharray:none;stroke-opacity:1" d="m 180.35674,107.77741 6.30643,-10.57538 -1.84405,8.51188 6.07961,-0.008 -6.73885,10.09773 2.30729,-8.10973 z m 25.86303,42.96906 6.30643,-10.57538 -1.84405,8.51188 6.07961,-0.008 -6.73885,10.09773 2.30729,-8.10973 z" sodipodi:nodetypes="cccccccccccccc" inkscape:label="rect5-9"></path><path id="rect6" style="display:inline;fill:#0aaed9;stroke:#ffffff;stroke-width:0;stroke-linejoin:round" d="m 164.56921,109.50432 v 1.47962 c 9.55841,-9.30279 12.0643,1.00016 0,3.99753 v 4.63721 c 9.81392,-10.36058 12.83208,1.95404 0,4.49722 v 4.84275 c 9.82312,-10.83848 12.91178,1.33814 0,3.47479 v 4.53444 c 9.48785,-12.1104 12.77825,3.80637 0,5.408 v 14.86571 c 0,1.26364 -1.03167,2.29217 -2.37482,2.29217 l -0.19583,0.004 c -1.34315,0 -2.09332,-1.03266 -2.09332,-2.2963 v -14.86558 c -14.50294,-1.38149 -10.04901,-17.09994 0,-5.408 v -4.53444 c -14.48567,-2.06931 -10.22691,-12.30686 0,-3.47479 v -4.84275 c -14.89934,-2.74325 -10.19508,-13.19127 0,-4.49722 v -4.63721 c -14.3217,-3.44557 -10.0801,-13.25527 0,-3.99753 v -1.47975 c 0,-0.77528 0.43117,-3.49281 2.33199,-3.49274 1.90081,7e-5 2.33198,2.71759 2.33198,3.49287 z" sodipodi:nodetypes="cccccccccccccccccccccscc"></path></g><g inkscape:groupmode="layer" id="layer4" inkscape:label="Block 2" style="display:inline"><g inkscape:label="Rendered Gears" transform="matrix(1.0878189,0,0,1.0860331,317.6583,138.21453)" id="g18-1" style="display:inline;fill:#ffffff;fill-opacity:1"><path style="display:inline;fill:#ffffff;fill-opacity:1;stroke:#0aaed9;stroke-width:1.77481;stroke-miterlimit:4;stroke-dasharray:none;stroke-opacity:1" d="m 32.968913,-13.950563 5.884648,0.773471 v 9.4895319 l -5.884648,0.7734711 -0.80257,2.70429101 3.037278,5.21130879 -6.804883,6.7101152 -5.284907,-2.9949789 -2.742484,0.7913923 -0.784395,5.8026966 H 9.9633998 L 9.1790051,9.5080394 6.4365214,8.7166471 1.1516135,11.711626 -5.6532689,5.0015108 -2.6159918,-0.20979799 -3.4185609,-2.914089 -9.3032093,-3.6875601 v -9.4895319 l 5.8846484,-0.773471 0.8025691,-2.704291 -3.0372771,-5.211309 6.8048824,-6.710116 5.2851995,2.99498 2.7421921,-0.791393 0.7843947,-5.802697 h 9.6235522 l 0.784395,5.802697 2.742484,0.791393 5.284907,-2.99498 6.804883,6.710116 -3.037278,5.211309 z" id="path17-9" sodipodi:nodetypes="ccccccccccccccccccccccccccccccccc"></path><ellipse style="display:inline;fill:#ffffff;fill-opacity:1;stroke:#0aaed9;stroke-width:1.83948;stroke-dasharray:none;stroke-opacity:1" id="path18-8-7" cx="14.2336" cy="-8.1977873" rx="11.737972" ry="11.873582"></ellipse></g><path style="fill:#ffffff;stroke:#ffffff;stroke-width:4.99845;stroke-linecap:round;stroke-linejoin:round;stroke-dasharray:none;stroke-opacity:1;paint-order:normal" d="m 312.72168,122.60954 9.59843,0.29069 16.72452,15.11545 1.49034,10.31919 -2.36291,8.42977 -18.17884,-12.35396 z" id="path4" sodipodi:nodetypes="ccccccc"></path><path id="rect18" style="display:inline;fill:#0aaed9;stroke:none;stroke-width:0.999691;stroke-linejoin:round;stroke-dasharray:none" d="m 303.0035,95.95498 0.40009,-3.40309 1.79977,-0.84456 2.15208,0.43394 0.87504,3.27059 c 12.24397,-0.90465 19.2913,1.42121 28.4925,7.28741 -11.14647,-2.89218 -17.92465,-3.50371 -25.78597,-0.59947 l -1.27205,7.10133 4.35887,46.87015 -1.95321,1.64949 -2.25095,-1.21269 -5.38169,-46.76387 -2.70654,-6.68795 c -8.66534,-0.89066 -14.69855,2.76184 -23.96799,8.85825 5.95801,-9.13749 14.30227,-14.70633 25.24005,-15.95957 z" sodipodi:nodetypes="cccccccccccccccc"></path><g inkscape:label="Rendered Gears" transform="matrix(0.75171247,0,0,0.75372944,320.3219,142.56963)" id="g18" style="display:inline;stroke:#0aaed9;stroke-width:1.26263;stroke-dasharray:none;stroke-opacity:1"><path style="fill:#ffffff;fill-opacity:1;stroke:#0aaed9;stroke-width:2.52527;stroke-miterlimit:4;stroke-dasharray:none;stroke-opacity:1" d="m 18.7249,-5.75955 6.05645,0.807295 v 9.90451 L 18.7249,5.75955 17.8989,8.5821 21.02485,14.0213 14.0213,21.02485 8.5821,17.8989 5.75955,18.7249 4.952255,24.78135 h -9.90451 l -0.807295,-6.05645 -2.82255,-0.826 -5.4392,3.12595 -7.00355,-7.00355 3.12595,-5.4392 -0.826,-2.82255 -6.05645,-0.807295 v -9.90451 l 6.05645,-0.807295 0.826,-2.82255 -3.12595,-5.4392 7.00355,-7.00355 5.4395,3.12595 2.82225,-0.826 0.807295,-6.05645 h 9.90451 l 0.807295,6.05645 2.82255,0.826 5.4392,-3.12595 7.00355,7.00355 -3.12595,5.4392 z" id="path17" sodipodi:nodetypes="ccccccccccccccccccccccccccccccccc"></path><circle style="fill:#ffffff;fill-opacity:1;stroke:#0aaed9;stroke-width:2.52527;stroke-dasharray:none;stroke-opacity:1" id="path18" cx="0" cy="0" r="10"></circle></g></g><g inkscape:groupmode="layer" id="layer6" inkscape:label="Block 3" style="display:inline"><g style="clip-rule:evenodd;display:inline;fill:#0aaed9;fill-rule:evenodd" id="g20" transform="matrix(0.75453371,0,0,0.9993823,195.40535,208.33355)"><path d="m 30.363606,37.04988 h -56.695717 -2.43606 v -2.186082 h 3.399772 V -10.818811 H 3.3296157 V 6.6641279 H 30.363606 V 34.863798 H 32.9217 V 37.04988 Z M -5.7471325,28.484635 H -17.697326 v 6.379163 l 11.9501935,2.6e-4 z m 28.2104025,0 H 9.8814565 v 6.379423 H 22.46327 Z m -36.444115,-8.708303 h -7.148623 v 5.036892 h 7.148623 z m 12.1770755,0 H -8.952391 v 5.036892 h 7.1486215 z m 15.5579255,0 H 6.6055363 v 5.036892 h 7.1486197 z m 11.985034,0 h -7.148621 v 5.036892 h 7.148621 z m -39.720035,-8.74147 h -7.148623 v 5.036893 h 7.148623 z m 12.1770755,0 H -8.952391 v 5.036893 h 7.1486215 z m 15.5579255,0 H 6.6055363 v 5.036893 h 7.1486197 z m 11.985034,0 h -7.148621 v 5.036893 H 25.73919 Z M -13.980845,2.2933933 h -7.148623 V 7.330285 h 7.148623 z m 12.1770755,0 H -8.952391 V 7.330285 h 7.1486215 z M -13.980845,-6.8116529 h -7.148623 v 5.4004686 h 7.148623 z m 12.1770755,0 H -8.952391 v 5.4004686 h 7.1486215 z" id="path1" style="display:inline;fill:#0aaed9;stroke-width:2.24789" sodipodi:nodetypes="ccccccccccccccccccccccccccccccccccccccccccccccccccccccccccccccccccccccccccccccccccc"></path></g><g stroke="#1ea0bd" stroke-width="4" stroke-linecap="round" stroke-linejoin="round" id="g3" style="display:inline;fill:none;stroke:#0aaed9;stroke-opacity:1" transform="matrix(0.67876121,0,0,0.78080633,129.00218,177.90463)"><path d="M 34.962464,85.041709 50,39.723021 65.037536,85.041709" id="path1-24" style="stroke:#0aaed9;stroke-width:4.11962;stroke-dasharray:none;stroke-opacity:1" sodipodi:nodetypes="ccc"></path><path d="M 50,50 V 87.440128" id="path2-8" style="stroke:#0aaed9;stroke-width:4.11962;stroke-dasharray:none;stroke-opacity:1" sodipodi:nodetypes="cc"></path><rect x="42.164597" y="34.765675" width="15.939903" height="15.656029" rx="1.0903029" id="rect2-6" style="fill:#0aaed9;fill-opacity:1;stroke:#0aaed9;stroke-width:2.93823;stroke-opacity:1"></rect><path id="line2" style="stroke-width:2.91878" d="M 45.129315,52.989285 H 55.16956" sodipodi:nodetypes="cc"></path><ellipse cx="50.134548" cy="39.975636" id="circle2" style="fill:#ffffff;fill-opacity:1;stroke:none;stroke-width:2.93823;stroke-opacity:1" ry="2.919714" rx="3.3421984"></ellipse><path d="m 42.367301,33.601868 v -1.617802 c 0,-0.976035 0.791232,-1.767267 1.767267,-1.767267 h 11.77155 c 0.994711,10e-7 1.819277,0.770804 1.886245,1.763258 l 0.109435,1.621811" id="path3-5" style="fill:#ffffff;fill-opacity:1;stroke:#0aaed9;stroke-width:1.55686;stroke-dasharray:none;stroke-opacity:1" sodipodi:nodetypes="ccccsc"></path><path d="m 42.234503,49.007438 v -4.217024 h 7.54012 v 4.217024" id="path3-5-6" style="fill:#ffffff;fill-opacity:1;stroke:none;stroke-width:1.69017;stroke-dasharray:none;stroke-opacity:1"></path></g></g><g inkscape:groupmode="layer" id="layer7" inkscape:label="Block 4"><g id="g21" transform="matrix(0.37365046,0,0,0.32116953,329.37558,213.0899)" style="stroke-width:8.65739;stroke-dasharray:none"><path d="m 50,5 c 0,0 31.763643,45 35,80 2.759912,29.84742 -19.766044,45.4708 -34.766044,45.4708 C 35.233956,130.4708 11.819827,114.79725 15,85 18.640902,50.885871 50,5 50,5 Z" fill="none" stroke="#0aaed9" stroke-width="4" stroke-linejoin="round" id="path1-2" sodipodi:nodetypes="csssc" style="stroke-width:8.65739;stroke-dasharray:none"></path><path d="m 58.119553,124.29175 c 0,0 -14.168674,-4.55665 -25.786492,-12.21216 C 23.66525,106.36797 24.90658,100.72184 17.012184,88.937138" fill="none" stroke="#0aaed9" stroke-width="3" stroke-linecap="round" opacity="0.25" id="path2" sodipodi:nodetypes="csc" style="stroke-width:14.429;stroke-linecap:round;stroke-linejoin:miter;stroke-dasharray:none;paint-order:normal"></path><path d="m 26.619008,89.746662 c 5.404898,12.095438 12.18611,18.054318 20.486597,19.536478" fill="none" stroke="#0aaed9" stroke-width="3" stroke-linecap="round" opacity="0.35" id="path3" sodipodi:nodetypes="cc" style="opacity:1;stroke:#0aaed9;stroke-width:8.65739;stroke-dasharray:none;stroke-opacity:1"></path></g><g stroke="#26a69a" stroke-width="2.5" stroke-linecap="round" stroke-linejoin="round" id="g11" style="display:inline;fill:none;stroke:#0aaed9;stroke-opacity:1" transform="matrix(0.94818554,0,0,0.7444675,260.04207,182.09983)"><g id="g28" inkscape:label="Tower" transform="matrix(0.71271822,0,0,1.0075348,19.163094,-0.46512149)" style="display:inline"><path id="line1" d="M 25,90 H 75" style="stroke:#0aaed9;stroke-opacity:1"></path><path id="line3" d="M 32,90 40.592457,35" sodipodi:nodetypes="cc" style="stroke:#0aaed9;stroke-opacity:1"></path><path id="line4" d="M 68,90 59.407543,35" sodipodi:nodetypes="cc" style="stroke:#0aaed9;stroke-opacity:1"></path><path id="line5" d="M 35.385966,70.416822 H 64.518815" sodipodi:nodetypes="cc" style="stroke:#0aaed9;stroke-opacity:1"></path><path id="line6" d="M 38.443949,50.416822 H 61.703772" sodipodi:nodetypes="cc" style="stroke:#0aaed9;stroke-opacity:1"></path><path id="line7" d="m 35.100308,70.416822 26.603464,-20 M 32.105789,89.18836 64.36013,69.895327 M 67.767716,88.749533 35.448994,70.281294 m 3.000459,-20.01746 20.762149,-16.5951" sodipodi:nodetypes="cccccccc" style="stroke:#0aaed9;stroke-opacity:1"></path><path id="line8" d="m 64.804473,70.416822 -26.360524,-20 M 61.593573,50.342062 41.074364,33.458446" sodipodi:nodetypes="cccc" style="stroke:#0aaed9;stroke-opacity:1"></path></g><g id="g27" style="display:inline"><path style="display:inline;fill:#ffffff;fill-opacity:1;stroke:#0aaed9;stroke-width:2.37972;stroke-linecap:round;stroke-linejoin:miter;stroke-miterlimit:4;stroke-dasharray:none;stroke-opacity:1;paint-order:normal" d="M 27.654589,43.00081 V 90.700071" id="path28" sodipodi:nodetypes="cc"></path><path style="display:inline;fill:#ffffff;fill-opacity:1;stroke:#0aaed9;stroke-width:2.37972;stroke-linecap:round;stroke-linejoin:miter;stroke-miterlimit:4;stroke-dasharray:none;stroke-opacity:1;paint-order:normal" d="M 75.04918,39.994609 V 50.834775" id="path26" sodipodi:nodetypes="cc"></path><rect style="display:inline;fill:#ffffff;fill-opacity:1;stroke:#0aaed9;stroke-width:1.82087;stroke-linecap:round;stroke-linejoin:miter;stroke-miterlimit:4;stroke-dasharray:none;stroke-opacity:1;paint-order:normal" id="rect25" width="10.312321" height="57.249699" x="42.993465" y="-70.204826" transform="matrix(0.23182971,0.97275639,-0.93671677,0.35008813,0,0)" ry="5.1561604" inkscape:label="rect25"></rect><path id="rect26" style="display:inline;fill:#ffffff;stroke:#0aaed9;stroke-width:1.31064;stroke-linecap:round" d="m 71.284515,13.758032 2.815224,-2.037091 a 2.5612974,2.5612974 0 0 1 3.002982,0 l 2.815224,2.037091 a 3.6287439,3.6287439 62.944714 0 1 1.501491,2.939826 v 14.331101 a 3.6287439,3.6287439 117.05529 0 1 -1.501491,2.939826 l -2.815224,2.037091 a 2.5612974,2.5612974 0 0 1 -3.002982,0 L 71.284515,33.968785 A 3.6287439,3.6287439 62.944714 0 1 69.783024,31.028959 V 16.697858 a 3.6287439,3.6287439 117.05529 0 1 1.501491,-2.939826 z" sodipodi:nodetypes="ccccccc" inkscape:path-effect="#path-effect27" inkscape:original-d="m 69.783024,14.844508 5.818206,-4.210043 5.818206,4.210043 v 18.037801 l -5.818206,4.210043 -5.818206,-4.210043 z" transform="matrix(1.2446841,0,0,1.2068816,-18.986471,-2.175962)"></path><rect style="display:inline;fill:#ffffff;fill-opacity:1;stroke:#0aaed9;stroke-width:1.86384;stroke-linecap:round;stroke-linejoin:miter;stroke-miterlimit:4;stroke-dasharray:none;stroke-opacity:1;paint-order:normal" id="rect27" width="6.8927722" height="13.805182" x="71.494331" y="50.886227" ry="3.1777406"></rect><rect style="display:inline;fill:#ffffff;fill-opacity:1;stroke:#0aaed9;stroke-width:1.89364;stroke-linecap:round;stroke-linejoin:miter;stroke-miterlimit:4;stroke-dasharray:none;stroke-opacity:1;paint-order:normal" id="rect28" width="5.7825418" height="6.8459702" x="72.309334" y="23.531181" ry="3.4229851" rx="2.8912709"></rect></g></g></g></svg></svg></g></g></svg></g></svg>